<svg id="dish" xmlns="http://www.w3.org/2000/svg" width="200" height="200" viewBox="0 0 200 200">
  <path id="Path_3" data-name="Path 3" d="M69.09,33.42l-2.14-7.043a15.3,15.3,0,0,0-28.973,0l-2.14,7.043a39.562,39.562,0,0,0-1.1,18.333,17.244,17.244,0,0,0,8.88,12.017l-2.4,53.576a10.555,10.555,0,0,0,2.667,8.207,11.644,11.644,0,0,0,16.45.737q.385-.352.737-.737a10.414,10.414,0,0,0,2.667-7.983l-2.41-53.807a17.239,17.239,0,0,0,8.867-12.01A39.562,39.562,0,0,0,69.09,33.42ZM63.627,50.593a10.57,10.57,0,0,1-6.917,7.963,3.333,3.333,0,0,0-2.157,3.27l2.533,56.27a3.857,3.857,0,0,1-1,3.02,5.15,5.15,0,0,1-7.247,0,4,4,0,0,1-.98-3.24l2.513-56.05a3.333,3.333,0,0,0-2.157-3.27A10.57,10.57,0,0,1,41.3,50.593a32.87,32.87,0,0,1,.917-15.22l2.14-7.047a8.643,8.643,0,0,1,16.213,0l2.14,7.047A32.916,32.916,0,0,1,63.627,50.593Z" transform="translate(72.536 33.987)" fill="#069c54"/>
  <path id="Path_4" data-name="Path 4" d="M51.467,16a3.334,3.334,0,0,0-3.333,3.333v28.62L39.11,56.976a3.335,3.335,0,0,0-.977,2.523l2.917,58.333a4.542,4.542,0,0,1-1.26,3.4,4.693,4.693,0,0,1-6.637.029l-.029-.029a4.541,4.541,0,0,1-1.26-3.4L34.8,59.5a3.335,3.335,0,0,0-.973-2.523L24.8,47.953V19.333a3.333,3.333,0,0,0-6.667,0v30a3.333,3.333,0,0,0,.977,2.357l8.953,8.957L25.22,117.51a11.26,11.26,0,1,0,22.493,1.1q.027-.548,0-1.1L44.87,60.647l8.953-8.957a3.333,3.333,0,0,0,.977-2.357v-30A3.334,3.334,0,0,0,51.467,16Z" transform="translate(38.533 34)" fill="#069c54"/>
  <path id="Path_5" data-name="Path 5" d="M24.667,16a3.334,3.334,0,0,0-3.333,3.333V46A3.333,3.333,0,0,0,28,46V19.333A3.334,3.334,0,0,0,24.667,16Z" transform="translate(45.333 34)" fill="#069c54"/>
  <path id="Path_6" data-name="Path 6" d="M27.867,16a3.334,3.334,0,0,0-3.333,3.333V46A3.333,3.333,0,0,0,31.2,46V19.333A3.334,3.334,0,0,0,27.867,16Z" transform="translate(52.133 34)" fill="#069c54"/>
  <path id="Path_7" data-name="Path 7" d="M100,0A100,100,0,1,0,200,100,100,100,0,0,0,100,0Zm0,193.333A93.333,93.333,0,1,1,193.333,100,93.333,93.333,0,0,1,100,193.333Z" fill="#069c54"/>
  <path id="Path_8" data-name="Path 8" d="M50.155,54.07a3.334,3.334,0,0,0-3.642-2.994l-.129.015.013,0a61.234,61.234,0,0,1-14.127,0,3.334,3.334,0,1,0-.777,6.623,67.493,67.493,0,0,0,15.667,0A3.333,3.333,0,0,0,50.155,54.07Z" transform="translate(60.665 108.502)" fill="#069c54"/>
  <path id="Path_9" data-name="Path 9" d="M54.867,19.065a3.333,3.333,0,0,0-4.7-.412l-.014.012a3.333,3.333,0,0,0-.4,4.7,60,60,0,0,1-3.537,81.156,3.334,3.334,0,0,0,4.707,4.723A66.667,66.667,0,0,0,54.867,19.065Z" transform="translate(96.133 37.981)" fill="#069c54"/>
  <path id="Path_10" data-name="Path 10" d="M24.86,14.1h0Z" transform="translate(52.799 29.96)" fill="#069c54"/>
  <path id="Path_11" data-name="Path 11" d="M65.182,12.523a67.255,67.255,0,0,0-39.237,2.41,3.33,3.33,0,1,0,2.337,6.237A60.555,60.555,0,0,1,63.615,19a3.333,3.333,0,0,0,1.567-6.48Z" transform="translate(50.541 22.674)" fill="#069c54"/>
  <path id="Path_12" data-name="Path 12" d="M34.833,101.961a59.993,59.993,0,0,1-6.027-77.626,3.333,3.333,0,1,0-5.329-4.006c-.02.026-.039.052-.057.079a66.666,66.666,0,0,0,6.69,86.273,3.339,3.339,0,1,0,4.723-4.72Z" transform="translate(22.663 40.371)" fill="#069c54"/>
</svg>
