<svg xmlns="http://www.w3.org/2000/svg" xmlns:xlink="http://www.w3.org/1999/xlink" width="200" height="200" viewBox="0 0 200 200">
  <defs>
    <clipPath id="clip-path">
      <rect id="Rectangle_320" data-name="Rectangle 320" width="200" height="200" transform="translate(0 0)" fill="#069c54"/>
    </clipPath>
  </defs>
  <g id="pizza" transform="translate(0 0)" clip-path="url(#clip-path)">
    <path id="Path_13" data-name="Path 13" d="M171.307,55.032a3.338,3.338,0,0,0-4.5-1.419h0L151.522,61.56H151.5L97.346,89.738,115.7,31.6c0-.023.027-.04.033-.067l5.173-16.486a3.337,3.337,0,0,0-2.186-4.178,89.7,89.7,0,0,0-55.05,170.744q.541.174,1.085.342a89.535,89.535,0,0,0,112.558-58.53A89,89,0,0,0,171.307,55.032ZM88.56,95.415a3.337,3.337,0,0,0,4.722,3.961l58.176-30.268c.257.557.531,1.108.771,1.668.333.807.667,1.618,1,2.439.431,1.125.818,2.259,1.182,3.4.277.868.547,1.739.787,2.613.3,1.118.564,2.246.807,3.377.2.907.4,1.812.554,2.723.193,1.131.334,2.266.467,3.4.11.918.23,1.832.3,2.753.087,1.165.107,2.336.13,3.5.02.9.063,1.792.043,2.69-.023,1.238-.13,2.476-.223,3.714-.067.827-.1,1.669-.19,2.483-.167,1.415-.424,2.823-.667,4.232-.117.647-.19,1.3-.334,1.942-.44,2.059-.971,4.111-1.615,6.147a65.364,65.364,0,0,1-32.37,38.554c-1.368.714-2.773,1.311-4.175,1.922A65.7,65.7,0,0,1,54.854,42.04,66.577,66.577,0,0,1,61.405,38.1c1.769-.921,3.574-1.732,5.393-2.483.317-.133.634-.267.954-.394q2.67-1.044,5.366-1.859c.307-.093.621-.17.931-.257,1.762-.5,3.534-.931,5.323-1.275.14-.027.28-.063.424-.09q2.8-.5,5.647-.778l1.1-.1c1.869-.147,3.744-.227,5.623-.21.29,0,.577.02.864.027,1.685.033,3.374.14,5.059.307.387.037.771.067,1.158.11q2.793.333,5.58.894c.39.08.781.18,1.171.267.771.173,1.538.4,2.309.6ZM170.93,121.4a83.133,83.133,0,1,1-57.415-105.12l-3.177,10.135c-.687-.184-1.382-.29-2.072-.451-1-.24-2.026-.467-3.043-.667-1.245-.237-2.486-.427-3.734-.6-1.051-.147-2.1-.29-3.15-.387-1.238-.117-2.469-.173-3.7-.227-1.058-.043-2.112-.093-3.167-.093-1.245,0-2.483.073-3.724.143-1.041.057-2.076.093-3.11.2-1.268.123-2.529.334-3.787.521-1,.15-2,.274-2.983.467-1.308.26-2.6.6-3.9.934-.924.237-1.855.434-2.773.707-1.385.414-2.75.924-4.118,1.425-.807.294-1.625.537-2.423.864-1.668.667-3.287,1.455-4.909,2.256-.471.233-.958.414-1.425.667-1.939,1-3.8,2.119-5.617,3.277a72.339,72.339,0,0,0-25.279,94.238c.027.053.047.107.073.157.067.127.15.24.214.367a71.894,71.894,0,0,0,42.255,35.281c.1.033.2.05.3.08,1.975.614,3.964,1.125,5.963,1.565.721.16,1.445.284,2.169.424,1.418.267,2.84.5,4.265.667.794.1,1.585.2,2.379.274,1.485.14,2.97.223,4.455.27.667.023,1.335.073,1.976.077h.36c1.822,0,3.641-.093,5.453-.234q.826-.065,1.645-.15c1.962-.193,3.918-.447,5.857-.8.333-.06.667-.143,1-.21,1.762-.334,3.511-.774,5.249-1.258.457-.127.914-.243,1.368-.38,1.922-.574,3.821-1.238,5.7-1.976.42-.167.834-.334,1.251-.514,1.969-.818,3.921-1.692,5.833-2.67a71.953,71.953,0,0,0,35.624-42.445c.1-.314.157-.634.25-.948.584-1.932,1.111-3.868,1.528-5.82.163-.767.253-1.538.39-2.309.274-1.515.554-3.027.731-4.548.1-.868.127-1.735.2-2.606.11-1.425.23-2.847.257-4.268.02-.921-.03-1.839-.047-2.76-.027-1.365-.05-2.73-.157-4.091-.073-.958-.207-1.909-.317-2.863-.157-1.312-.314-2.616-.537-3.918-.173-1-.4-1.969-.611-2.953-.274-1.245-.554-2.486-.891-3.721-.28-1-.6-2.022-.928-3.03-.377-1.168-.768-2.336-1.2-3.484-.4-1.048-.834-2.086-1.282-3.12-.257-.591-.457-1.195-.731-1.782l9.414-4.9A82.321,82.321,0,0,1,170.93,121.4Z" transform="translate(3.13 13.841)" fill="#069c54"/>
    <path id="Path_14" data-name="Path 14" d="M118.915,44.539A88.678,88.678,0,0,0,66.4.155a3.337,3.337,0,0,0-4.185,2.179L56.974,18.956l-21,66.563a3.337,3.337,0,0,0,4.739,3.955L102.149,57.1,117.5,49.01A3.336,3.336,0,0,0,118.915,44.539ZM64.186,33.126a5.006,5.006,0,1,1-5.006,5.006A5.006,5.006,0,0,1,64.186,33.126Zm-19.4,46.66,4.465-14.16a11.636,11.636,0,0,0,5.306,9.01Zm16.065-9.952a5.006,5.006,0,1,1,5.006-5.006A5.006,5.006,0,0,1,60.849,69.834Zm11.683-4.652c0-.123.037-.237.037-.36a11.63,11.63,0,0,0-20.727-7.3L55.489,45.85a11.7,11.7,0,1,0,6.027-19.065L62.3,24.3c.567.21,1.145.4,1.705.631.768.31,1.532.624,2.282.961,1.148.514,2.269,1.071,3.381,1.649.694.36,1.4.711,2.079,1.1,1.181.667,2.336,1.395,3.461,2.136.554.36,1.125.694,1.668,1.075q2.406,1.669,4.672,3.561l.127.1q2.3,1.947,4.408,4.121c.451.461.868.961,1.308,1.435.931,1,1.849,2.032,2.72,3.1.487.6.944,1.228,1.412,1.849.764,1,1.508,2.036,2.216,3.093.454.667.891,1.378,1.335,2.079.334.531.624,1.084.938,1.625Zm29.424-15.514c-.367-.644-.794-1.242-1.181-1.872-.484-.791-.971-1.582-1.485-2.336-.771-1.158-1.589-2.276-2.423-3.381-.524-.7-1.035-1.408-1.585-2.082-.951-1.175-1.959-2.289-2.977-3.4-.5-.537-.965-1.1-1.478-1.625C89.281,33.4,87.679,31.888,86,30.463l-.05-.047c-1.7-1.435-3.474-2.78-5.3-4.051-.6-.414-1.228-.778-1.836-1.175-1.261-.824-2.533-1.632-3.847-2.376-.754-.424-1.532-.8-2.3-1.2-1.231-.637-2.469-1.255-3.741-1.825-.838-.37-1.685-.714-2.54-1.055-.691-.277-1.355-.6-2.056-.858l3.244-10.3a81.95,81.95,0,0,1,43.857,37.112Z" transform="translate(76.116 0)" fill="#069c54"/>
    <path id="Path_15" data-name="Path 15" d="M33.617,17.008A11.68,11.68,0,1,0,45.3,28.688,11.68,11.68,0,0,0,33.617,17.008Zm0,16.686a5.006,5.006,0,1,1,5.006-5.006A5.006,5.006,0,0,1,33.617,33.693Z" transform="translate(46.616 36.141)" fill="#069c54"/>
    <path id="Path_16" data-name="Path 16" d="M22.938,26.618A11.68,11.68,0,1,0,34.618,38.3,11.68,11.68,0,0,0,22.938,26.618Zm0,16.686A5.006,5.006,0,1,1,27.944,38.3,5.006,5.006,0,0,1,22.938,43.3Z" transform="translate(23.923 56.564)" fill="#069c54"/>
    <path id="Path_17" data-name="Path 17" d="M33.617,26.618A11.68,11.68,0,1,0,45.3,38.3,11.68,11.68,0,0,0,33.617,26.618Zm0,16.686A5.006,5.006,0,1,1,38.623,38.3,5.006,5.006,0,0,1,33.617,43.3Z" transform="translate(46.616 56.564)" fill="#069c54"/>
    <path id="Path_18" data-name="Path 18" d="M44.3,45.841a11.68,11.68,0,1,0,11.68,11.68A11.68,11.68,0,0,0,44.3,45.841Zm0,16.686A5.006,5.006,0,1,1,49.3,57.521,5.006,5.006,0,0,1,44.3,62.526Z" transform="translate(69.308 97.411)" fill="#069c54"/>
    <path id="Path_19" data-name="Path 19" d="M51.771,38.365a11.68,11.68,0,1,0,11.68,11.68A11.68,11.68,0,0,0,51.771,38.365Zm0,16.686a5.006,5.006,0,1,1,5.006-5.006A5.006,5.006,0,0,1,51.771,55.051Z" transform="translate(85.193 81.526)" fill="#069c54"/>
    <path id="Path_20" data-name="Path 20" d="M54.975,29.822A11.68,11.68,0,1,0,66.655,41.5,11.68,11.68,0,0,0,54.975,29.822Zm0,16.686A5.006,5.006,0,1,1,59.981,41.5,5.006,5.006,0,0,1,54.975,46.508Z" transform="translate(92.001 63.372)" fill="#069c54"/>
    <path id="Path_21" data-name="Path 21" d="M24.006,37.3a11.68,11.68,0,1,0,11.68,11.68A11.68,11.68,0,0,0,24.006,37.3Zm0,16.686a5.006,5.006,0,1,1,5.006-5.006A5.006,5.006,0,0,1,24.006,53.983Z" transform="translate(26.193 79.257)" fill="#069c54"/>
    <path id="Path_22" data-name="Path 22" d="M41.092,36.23a11.68,11.68,0,1,0,11.68,11.68A11.68,11.68,0,0,0,41.092,36.23Zm0,16.686A5.006,5.006,0,1,1,46.1,47.91,5.006,5.006,0,0,1,41.092,52.915Z" transform="translate(62.501 76.988)" fill="#069c54"/>
    <path id="Path_23" data-name="Path 23" d="M31.481,45.841a11.68,11.68,0,1,0,11.68,11.68A11.68,11.68,0,0,0,31.481,45.841Zm0,16.686a5.006,5.006,0,1,1,5.006-5.006A5.006,5.006,0,0,1,31.481,62.526Z" transform="translate(42.077 97.411)" fill="#069c54"/>
    <path id="Path_24" data-name="Path 24" d="M19.935,22.347a3.337,3.337,0,1,0,0,6.674,3.338,3.338,0,0,1,3.337,3.337,3.337,3.337,0,0,0,6.674,0A10.012,10.012,0,0,0,19.935,22.347Z" transform="translate(35.27 47.487)" fill="#069c54"/>
    <path id="Path_25" data-name="Path 25" d="M38.356,44.773A10.011,10.011,0,0,0,28.344,54.784a3.337,3.337,0,1,0,6.674,0,3.337,3.337,0,0,1,3.337-3.337,3.337,3.337,0,1,0,0-6.674Z" transform="translate(60.231 95.142)" fill="#069c54"/>
    <path id="Path_26" data-name="Path 26" d="M44.107,16.916a3.338,3.338,0,0,0-4.72,0,3.414,3.414,0,0,1-4.719,0,3.338,3.338,0,1,0-4.722,4.719,10.012,10.012,0,0,0,14.158,0l0,0A3.338,3.338,0,0,0,44.107,16.916Z" transform="translate(61.56 33.871)" fill="#069c54"/>
    <path id="Path_27" data-name="Path 27" d="M47.967,34.094A10.011,10.011,0,0,0,37.955,44.105a3.337,3.337,0,0,0,6.674,0,3.337,3.337,0,0,1,3.337-3.337,3.337,3.337,0,1,0,0-6.674Z" transform="translate(80.655 72.449)" fill="#069c54"/>
    <path id="Path_28" data-name="Path 28" d="M28.708,36.767l0,0a3.338,3.338,0,0,0-4.719,4.722,3.337,3.337,0,0,1,0,4.719,3.337,3.337,0,0,0-.006,4.719l0,0a3.337,3.337,0,0,0,4.719,0l0,0A10.011,10.011,0,0,0,28.708,36.767Z" transform="translate(48.883 76.044)" fill="#069c54"/>
    <path id="Path_29" data-name="Path 29" d="M57.578,13.8a3.337,3.337,0,0,0-3.337,3.337A3.337,3.337,0,0,1,50.9,20.478a3.337,3.337,0,1,0,0,6.674A10.011,10.011,0,0,0,60.915,17.141,3.337,3.337,0,0,0,57.578,13.8Z" transform="translate(101.078 29.333)" fill="#069c54"/>
  </g>
</svg>
