<svg xmlns="http://www.w3.org/2000/svg" xmlns:xlink="http://www.w3.org/1999/xlink" width="200" height="200" viewBox="0 0 200 200">
  <defs>
    <clipPath id="clip-path">
      <rect id="Rectangle_321" data-name="Rectangle 321" width="200" height="200" transform="translate(0 0)" fill="#069c54"/>
    </clipPath>
  </defs>
  <g id="truck" transform="translate(0 0)" clip-path="url(#clip-path)">
    <path id="Path_30" data-name="Path 30" d="M26,49.6a10,10,0,1,0,10,10A10,10,0,0,0,26,49.6Zm0,13.332A3.333,3.333,0,1,1,29.33,59.6,3.333,3.333,0,0,1,26,62.933Z" transform="translate(33.996 105.403)" fill="#069c54"/>
    <path id="Path_31" data-name="Path 31" d="M56.927,49.6a10,10,0,1,0,10,10A10,10,0,0,0,56.927,49.6Zm0,13.332A3.333,3.333,0,1,1,60.259,59.6,3.333,3.333,0,0,1,56.927,62.933Z" transform="translate(99.721 105.403)" fill="#069c54"/>
    <path id="Path_32" data-name="Path 32" d="M3.2,21.872H9.865v6.666H3.2Z" transform="translate(6.799 46.477)" fill="#069c54"/>
    <path id="Path_33" data-name="Path 33" d="M0,26.138H6.666V32.8H0Z" transform="translate(0 55.542)" fill="#069c54"/>
    <path id="Path_34" data-name="Path 34" d="M52.261,11.206h20v6.666h-20Z" transform="translate(111.053 23.813)" fill="#069c54"/>
    <path id="Path_35" data-name="Path 35" d="M47.994,11.206H54.66v6.666H47.994Z" transform="translate(101.988 23.813)" fill="#069c54"/>
    <path id="Path_36" data-name="Path 36" d="M34.129,4.807H67.459v6.666H34.129Z" transform="translate(72.525 10.214)" fill="#069c54"/>
    <path id="Path_37" data-name="Path 37" d="M29.863,4.807h6.666v6.666H29.863Z" transform="translate(63.459 10.214)" fill="#069c54"/>
    <path id="Path_38" data-name="Path 38" d="M199.976,161.188v-6.666H171.513a19.916,19.916,0,0,0,5.034-11.332l21.763-12.438a3.541,3.541,0,0,0,.436-.357,3.072,3.072,0,0,0,.334-.263,3.319,3.319,0,0,0,.607-.9c.016-.031.039-.05.054-.08a3.327,3.327,0,0,0,.239-1.186c0-.037.019-.067.019-.1v-30a2.563,2.563,0,0,0-.06-.29,2.418,2.418,0,0,0,0-.261l-6.666-40a1.535,1.535,0,0,0-.052-.146v-.113l-3.333-13.332a3.334,3.334,0,0,0-3.243-2.524H146.216a9.933,9.933,0,0,0-2.5-4.309L120.962,14.135a9.931,9.931,0,0,0-7.07-2.929H33.329A3.333,3.333,0,0,0,30,14.539V27.871H0v6.666H30v10H23.331V51.2H30v6.666H13.332v6.666H30v30a3.333,3.333,0,0,0-3.333,3.333v30c0,.07.037.13.041.2a3.344,3.344,0,0,0,.179.884,3.09,3.09,0,0,0,.111.313,3.294,3.294,0,0,0,.636.944l12.425,12.425a19.892,19.892,0,0,0,5.072,11.895H0v6.666Zm-62.159-26.664H78.824a19.825,19.825,0,0,0-1.539-3.333h62.073A19.8,19.8,0,0,0,137.817,134.525ZM79.99,141.19h56.66a19.9,19.9,0,0,0,5.133,13.332H74.858A19.9,19.9,0,0,0,79.99,141.19Zm63.326,0a13.332,13.332,0,1,1,13.332,13.332A13.332,13.332,0,0,1,143.316,141.19Zm32.589-5.333a19.771,19.771,0,0,0-1.966-4.666h10.152Zm16.8-41.328H159.981V61.2h27.173Zm-7-40H156.648a3.333,3.333,0,0,0-3.333,3.333v40a3.333,3.333,0,0,0,3.333,3.333H193.31v6.666h-10v6.666h10v10H167.68a19.923,19.923,0,0,0-22.064,0H71.025a19.924,19.924,0,0,0-22.065,0H33.329V111.194H46.661v-6.666H33.329V101.2H143.316a3.333,3.333,0,0,0,3.333-3.333V47.868h37.393Zm-149.046,10H63.326V57.867H36.662V51.2h30V44.535h-30v-10H53.327V27.871H36.662v-10h77.23a3.365,3.365,0,0,1,2.357.977l22.758,22.758a3.331,3.331,0,0,1,.977,2.36V94.529H36.662ZM42.7,131.192a19.718,19.718,0,0,0-1.483,3.177l-3.177-3.177Zm3.959,10a13.332,13.332,0,1,1,13.332,13.332A13.332,13.332,0,0,1,46.661,141.19Z" transform="translate(0 23.813)" fill="#069c54"/>
  </g>
</svg>
